<mxfile host="app.diagrams.net" modified="2021-09-16T08:26:42.666Z" agent="5.0 (Windows NT 10.0; Win64; x64) AppleWebKit/537.36 (KHTML, like Gecko) Chrome/92.0.4515.159 Safari/537.36" etag="iGlf2A5nK_FPAwo6Vd1I" version="15.2.7" type="github">
  <diagram id="hkeRJ4eoxs8aoBePzy__" name="Page-1">
    <mxGraphModel dx="1038" dy="579" grid="1" gridSize="10" guides="1" tooltips="1" connect="1" arrows="1" fold="1" page="1" pageScale="1" pageWidth="827" pageHeight="1169" math="0" shadow="0">
      <root>
        <mxCell id="0" />
        <mxCell id="1" parent="0" />
        <mxCell id="66mkIdsG3FyTPQOkocWG-1" value="B2C" style="whiteSpace=wrap;rounded=1;fillColor=#d5e8d4;strokeColor=#82b366;shadow=1;fontStyle=1;fontSize=22;arcSize=3;labelPosition=left;verticalLabelPosition=top;align=right;verticalAlign=bottom;spacingTop=0;spacingLeft=0;html=1;spacing=-67;" parent="1" vertex="1">
          <mxGeometry x="20" y="470" width="1900" height="740" as="geometry" />
        </mxCell>
        <mxCell id="66mkIdsG3FyTPQOkocWG-2" value="Team" style="whiteSpace=wrap;rounded=1;fillColor=#F2931E;strokeColor=none;shadow=1;fontColor=#FFFFFF;fontStyle=1;fontSize=20;arcSize=2;spacing=-60;labelPosition=left;verticalLabelPosition=top;align=right;verticalAlign=bottom;" parent="1" vertex="1">
          <mxGeometry x="470" y="740" width="400" height="450" as="geometry" />
        </mxCell>
        <mxCell id="66mkIdsG3FyTPQOkocWG-3" value="Frontend" style="whiteSpace=wrap;rounded=1;fillColor=#999999;strokeColor=none;shadow=1;fontColor=#FFFFFF;fontStyle=0;fontSize=19;" parent="1" vertex="1">
          <mxGeometry x="540" y="920.0000000000001" width="120" height="60" as="geometry" />
        </mxCell>
        <mxCell id="66mkIdsG3FyTPQOkocWG-4" value="Backend" style="whiteSpace=wrap;rounded=1;fillColor=#999999;strokeColor=none;shadow=1;fontColor=#FFFFFF;fontStyle=0;fontSize=19;" parent="1" vertex="1">
          <mxGeometry x="540.0000000000001" y="1010.0000000000001" width="120" height="60" as="geometry" />
        </mxCell>
        <mxCell id="66mkIdsG3FyTPQOkocWG-5" value="QA" style="whiteSpace=wrap;rounded=1;fillColor=#999999;strokeColor=none;shadow=1;fontColor=#FFFFFF;fontStyle=0;fontSize=19;" parent="1" vertex="1">
          <mxGeometry x="540" y="1100" width="120" height="60" as="geometry" />
        </mxCell>
        <mxCell id="66mkIdsG3FyTPQOkocWG-6" value="" style="edgeStyle=elbowEdgeStyle;elbow=horizontal;rounded=0;fontColor=#000000;endArrow=none;endFill=0;strokeWidth=8;strokeColor=#23445D;entryX=1;entryY=0.5;entryDx=0;entryDy=0;exitX=1;exitY=0.5;exitDx=0;exitDy=0;" parent="1" source="66mkIdsG3FyTPQOkocWG-40" target="66mkIdsG3FyTPQOkocWG-4" edge="1">
          <mxGeometry width="100" height="100" relative="1" as="geometry">
            <mxPoint x="540" y="900" as="sourcePoint" />
            <mxPoint x="540" y="1000" as="targetPoint" />
            <Array as="points">
              <mxPoint x="690" y="960" />
              <mxPoint x="750" y="930" />
            </Array>
          </mxGeometry>
        </mxCell>
        <mxCell id="66mkIdsG3FyTPQOkocWG-7" value="" style="edgeStyle=elbowEdgeStyle;elbow=horizontal;rounded=0;fontColor=#000000;endArrow=none;endFill=0;strokeWidth=8;strokeColor=#23445D;entryX=1;entryY=0.5;entryDx=0;entryDy=0;exitX=0;exitY=0.5;exitDx=0;exitDy=0;" parent="1" source="66mkIdsG3FyTPQOkocWG-41" target="66mkIdsG3FyTPQOkocWG-5" edge="1">
          <mxGeometry width="100" height="100" relative="1" as="geometry">
            <mxPoint x="800" y="820" as="sourcePoint" />
            <mxPoint x="830" y="1130" as="targetPoint" />
            <Array as="points">
              <mxPoint x="690" y="930" />
              <mxPoint x="750" y="940" />
            </Array>
          </mxGeometry>
        </mxCell>
        <mxCell id="66mkIdsG3FyTPQOkocWG-8" value="Teamlead" style="whiteSpace=wrap;rounded=1;fillColor=#12AAB5;strokeColor=none;shadow=1;fontColor=#FFFFFF;fontSize=19;" parent="1" vertex="1">
          <mxGeometry x="540" y="780.0000000000001" width="120" height="60" as="geometry" />
        </mxCell>
        <mxCell id="66mkIdsG3FyTPQOkocWG-9" value="PO" style="whiteSpace=wrap;rounded=1;fillColor=#12AAB5;strokeColor=none;shadow=1;fontColor=#FFFFFF;fontSize=19;" parent="1" vertex="1">
          <mxGeometry x="720" y="780.0000000000001" width="120" height="60" as="geometry" />
        </mxCell>
        <mxCell id="66mkIdsG3FyTPQOkocWG-10" value="" style="edgeStyle=elbowEdgeStyle;elbow=horizontal;rounded=0;fontColor=#000000;endArrow=none;endFill=0;strokeWidth=8;strokeColor=#23445D;exitX=1;exitY=0.5;exitDx=0;exitDy=0;entryX=1;entryY=0.5;entryDx=0;entryDy=0;" parent="1" edge="1">
          <mxGeometry width="100" height="100" relative="1" as="geometry">
            <mxPoint x="660" y="810" as="sourcePoint" />
            <mxPoint x="660" y="950" as="targetPoint" />
            <Array as="points">
              <mxPoint x="690" y="930" />
              <mxPoint x="750" y="890" />
            </Array>
          </mxGeometry>
        </mxCell>
        <mxCell id="66mkIdsG3FyTPQOkocWG-11" value="Руководитель разработки" style="whiteSpace=wrap;rounded=1;shadow=1;fillColor=#10739E;strokeColor=none;fontColor=#FFFFFF;fontStyle=1;fontSize=24" parent="1" vertex="1">
          <mxGeometry x="460" y="510" width="340" height="60" as="geometry" />
        </mxCell>
        <mxCell id="66mkIdsG3FyTPQOkocWG-12" value="Team" style="whiteSpace=wrap;rounded=1;fillColor=#F2931E;strokeColor=none;shadow=1;fontColor=#FFFFFF;fontStyle=1;fontSize=20;arcSize=2;spacing=-60;labelPosition=left;verticalLabelPosition=top;align=right;verticalAlign=bottom;" parent="1" vertex="1">
          <mxGeometry x="40" y="740" width="400" height="450" as="geometry" />
        </mxCell>
        <mxCell id="66mkIdsG3FyTPQOkocWG-13" value="DevOps" style="whiteSpace=wrap;rounded=1;fillColor=#999999;strokeColor=none;shadow=1;fontColor=#FFFFFF;fontStyle=0;fontSize=19;" parent="1" vertex="1">
          <mxGeometry x="210.00000000000034" y="1240" width="120" height="60" as="geometry" />
        </mxCell>
        <mxCell id="66mkIdsG3FyTPQOkocWG-14" value="" style="edgeStyle=elbowEdgeStyle;elbow=horizontal;rounded=0;fontColor=#000000;endArrow=none;endFill=0;strokeWidth=8;strokeColor=#23445D;entryX=1;entryY=0.5;entryDx=0;entryDy=0;exitX=1;exitY=0.5;exitDx=0;exitDy=0;" parent="1" source="66mkIdsG3FyTPQOkocWG-22" target="66mkIdsG3FyTPQOkocWG-26" edge="1">
          <mxGeometry width="100" height="100" relative="1" as="geometry">
            <mxPoint x="140" y="930" as="sourcePoint" />
            <mxPoint x="140" y="1030" as="targetPoint" />
            <Array as="points">
              <mxPoint x="260" y="970" />
              <mxPoint x="320" y="1010" />
            </Array>
          </mxGeometry>
        </mxCell>
        <mxCell id="66mkIdsG3FyTPQOkocWG-15" value="CTO" style="whiteSpace=wrap;rounded=1;shadow=1;fillColor=#10739E;strokeColor=none;fontColor=#FFFFFF;fontStyle=1;fontSize=24" parent="1" vertex="1">
          <mxGeometry x="1169" y="180" width="340" height="60" as="geometry" />
        </mxCell>
        <mxCell id="66mkIdsG3FyTPQOkocWG-16" value="" style="edgeStyle=elbowEdgeStyle;elbow=vertical;rounded=0;fontColor=#000000;endArrow=none;endFill=0;strokeWidth=8;strokeColor=#23445D;entryX=0.5;entryY=0;entryDx=0;entryDy=0;exitX=0.5;exitY=1;exitDx=0;exitDy=0;" parent="1" source="66mkIdsG3FyTPQOkocWG-15" target="66mkIdsG3FyTPQOkocWG-11" edge="1">
          <mxGeometry width="100" height="100" relative="1" as="geometry">
            <mxPoint x="1339" y="380" as="sourcePoint" />
            <mxPoint x="920" y="500" as="targetPoint" />
            <Array as="points">
              <mxPoint x="1040" y="280" />
            </Array>
          </mxGeometry>
        </mxCell>
        <mxCell id="66mkIdsG3FyTPQOkocWG-17" style="edgeStyle=orthogonalEdgeStyle;rounded=0;orthogonalLoop=1;jettySize=auto;html=1;dashed=1;endArrow=none;endFill=0;fontSize=19;entryX=0.75;entryY=1;entryDx=0;entryDy=0;exitX=0.25;exitY=1;exitDx=0;exitDy=0;" parent="1" source="66mkIdsG3FyTPQOkocWG-18" target="66mkIdsG3FyTPQOkocWG-11" edge="1">
          <mxGeometry relative="1" as="geometry">
            <Array as="points">
              <mxPoint x="1225" y="650" />
              <mxPoint x="715" y="650" />
            </Array>
          </mxGeometry>
        </mxCell>
        <mxCell id="66mkIdsG3FyTPQOkocWG-18" value="Директор B2C" style="whiteSpace=wrap;rounded=1;shadow=1;fillColor=#10739E;strokeColor=none;fontColor=#FFFFFF;fontStyle=1;fontSize=24" parent="1" vertex="1">
          <mxGeometry x="1140" y="510" width="340" height="60" as="geometry" />
        </mxCell>
        <mxCell id="66mkIdsG3FyTPQOkocWG-19" value="Директор" style="whiteSpace=wrap;rounded=1;shadow=1;fillColor=#10739E;strokeColor=none;fontColor=#FFFFFF;fontStyle=1;fontSize=24" parent="1" vertex="1">
          <mxGeometry x="1470" y="50" width="340" height="60" as="geometry" />
        </mxCell>
        <mxCell id="66mkIdsG3FyTPQOkocWG-20" value="" style="edgeStyle=elbowEdgeStyle;elbow=vertical;rounded=0;fontColor=#000000;endArrow=none;endFill=0;strokeWidth=8;entryX=0.5;entryY=0;entryDx=0;entryDy=0;strokeColor=#CC0066;" parent="1" source="66mkIdsG3FyTPQOkocWG-19" target="66mkIdsG3FyTPQOkocWG-15" edge="1">
          <mxGeometry width="100" height="100" relative="1" as="geometry">
            <mxPoint x="1349" y="250" as="sourcePoint" />
            <mxPoint x="640" y="450" as="targetPoint" />
          </mxGeometry>
        </mxCell>
        <mxCell id="66mkIdsG3FyTPQOkocWG-21" value="" style="edgeStyle=elbowEdgeStyle;elbow=vertical;rounded=0;fontColor=#000000;endArrow=none;endFill=0;strokeWidth=8;entryX=0.5;entryY=0;entryDx=0;entryDy=0;exitX=0.5;exitY=1;exitDx=0;exitDy=0;strokeColor=#CC0066;" parent="1" source="66mkIdsG3FyTPQOkocWG-19" target="66mkIdsG3FyTPQOkocWG-18" edge="1">
          <mxGeometry width="100" height="100" relative="1" as="geometry">
            <mxPoint x="1359" y="260" as="sourcePoint" />
            <mxPoint x="650" y="460" as="targetPoint" />
            <Array as="points">
              <mxPoint x="1470" y="340" />
              <mxPoint x="1500" y="360" />
            </Array>
          </mxGeometry>
        </mxCell>
        <mxCell id="66mkIdsG3FyTPQOkocWG-22" value="Teamlead" style="whiteSpace=wrap;rounded=1;fillColor=#12AAB5;strokeColor=none;shadow=1;fontColor=#FFFFFF;fontSize=19;" parent="1" vertex="1">
          <mxGeometry x="110" y="780.0000000000001" width="120" height="60" as="geometry" />
        </mxCell>
        <mxCell id="66mkIdsG3FyTPQOkocWG-23" value="PO" style="whiteSpace=wrap;rounded=1;fillColor=#12AAB5;strokeColor=none;shadow=1;fontColor=#FFFFFF;fontSize=19;" parent="1" vertex="1">
          <mxGeometry x="290" y="780.0000000000001" width="120" height="60" as="geometry" />
        </mxCell>
        <mxCell id="66mkIdsG3FyTPQOkocWG-24" value="Frontend" style="whiteSpace=wrap;rounded=1;fillColor=#999999;strokeColor=none;shadow=1;fontColor=#FFFFFF;fontStyle=0;fontSize=19;" parent="1" vertex="1">
          <mxGeometry x="109.99999999999994" y="920.0000000000001" width="120" height="60" as="geometry" />
        </mxCell>
        <mxCell id="66mkIdsG3FyTPQOkocWG-25" value="Backend" style="whiteSpace=wrap;rounded=1;fillColor=#999999;strokeColor=none;shadow=1;fontColor=#FFFFFF;fontStyle=0;fontSize=19;" parent="1" vertex="1">
          <mxGeometry x="110.00000000000011" y="1010.0000000000001" width="120" height="60" as="geometry" />
        </mxCell>
        <mxCell id="66mkIdsG3FyTPQOkocWG-26" value="QA" style="whiteSpace=wrap;rounded=1;fillColor=#999999;strokeColor=none;shadow=1;fontColor=#FFFFFF;fontStyle=0;fontSize=19;" parent="1" vertex="1">
          <mxGeometry x="110.00000000000006" y="1100" width="120" height="60" as="geometry" />
        </mxCell>
        <mxCell id="66mkIdsG3FyTPQOkocWG-27" value="" style="edgeStyle=elbowEdgeStyle;elbow=horizontal;rounded=0;fontColor=#000000;endArrow=none;endFill=0;strokeWidth=8;strokeColor=#23445D;exitX=1;exitY=0.5;exitDx=0;exitDy=0;entryX=1;entryY=0.5;entryDx=0;entryDy=0;" parent="1" source="66mkIdsG3FyTPQOkocWG-22" target="66mkIdsG3FyTPQOkocWG-24" edge="1">
          <mxGeometry width="100" height="100" relative="1" as="geometry">
            <mxPoint x="40" y="1040" as="sourcePoint" />
            <mxPoint x="140" y="940" as="targetPoint" />
            <Array as="points">
              <mxPoint x="260" y="930" />
              <mxPoint x="320" y="890" />
            </Array>
          </mxGeometry>
        </mxCell>
        <mxCell id="66mkIdsG3FyTPQOkocWG-28" value="" style="edgeStyle=elbowEdgeStyle;elbow=horizontal;rounded=0;fontColor=#000000;endArrow=none;endFill=0;strokeWidth=8;strokeColor=#23445D;entryX=1;entryY=0.5;entryDx=0;entryDy=0;exitX=1;exitY=0.5;exitDx=0;exitDy=0;" parent="1" source="66mkIdsG3FyTPQOkocWG-22" target="66mkIdsG3FyTPQOkocWG-25" edge="1">
          <mxGeometry width="100" height="100" relative="1" as="geometry">
            <mxPoint x="110" y="900" as="sourcePoint" />
            <mxPoint x="110" y="1000" as="targetPoint" />
            <Array as="points">
              <mxPoint x="260" y="960" />
              <mxPoint x="320" y="930" />
            </Array>
          </mxGeometry>
        </mxCell>
        <mxCell id="66mkIdsG3FyTPQOkocWG-29" value="" style="edgeStyle=elbowEdgeStyle;elbow=vertical;rounded=0;fontColor=#000000;endArrow=none;endFill=0;strokeWidth=8;entryX=0.5;entryY=0;entryDx=0;entryDy=0;strokeColor=#007FFF;" parent="1" source="66mkIdsG3FyTPQOkocWG-11" target="66mkIdsG3FyTPQOkocWG-22" edge="1">
          <mxGeometry width="100" height="100" relative="1" as="geometry">
            <mxPoint x="540" y="280" as="sourcePoint" />
            <mxPoint x="270" y="670" as="targetPoint" />
            <Array as="points">
              <mxPoint x="400" y="620" />
            </Array>
          </mxGeometry>
        </mxCell>
        <mxCell id="66mkIdsG3FyTPQOkocWG-30" value="" style="edgeStyle=elbowEdgeStyle;elbow=horizontal;rounded=0;fontColor=#000000;endArrow=none;endFill=0;strokeWidth=8;strokeColor=#23445D;entryX=1;entryY=0.5;entryDx=0;entryDy=0;exitX=0;exitY=0.5;exitDx=0;exitDy=0;" parent="1" source="66mkIdsG3FyTPQOkocWG-23" target="66mkIdsG3FyTPQOkocWG-26" edge="1">
          <mxGeometry width="100" height="100" relative="1" as="geometry">
            <mxPoint x="370" y="820" as="sourcePoint" />
            <mxPoint x="400" y="1130" as="targetPoint" />
            <Array as="points">
              <mxPoint x="260" y="930" />
              <mxPoint x="320" y="940" />
            </Array>
          </mxGeometry>
        </mxCell>
        <mxCell id="66mkIdsG3FyTPQOkocWG-31" value="Frontend-lead" style="whiteSpace=wrap;rounded=1;shadow=1;strokeColor=none;fontColor=#FFFFFF;fontStyle=1;fontSize=19;fillColor=#B266FF;" parent="1" vertex="1">
          <mxGeometry x="1690" y="920" width="159" height="60" as="geometry" />
        </mxCell>
        <mxCell id="66mkIdsG3FyTPQOkocWG-32" value="QA-lead" style="whiteSpace=wrap;rounded=1;shadow=1;strokeColor=none;fontColor=#FFFFFF;fontStyle=1;fontSize=19;fillColor=#B266FF;" parent="1" vertex="1">
          <mxGeometry x="1690" y="1100" width="159" height="60" as="geometry" />
        </mxCell>
        <mxCell id="66mkIdsG3FyTPQOkocWG-33" value="Backend-lead" style="whiteSpace=wrap;rounded=1;shadow=1;strokeColor=none;fontColor=#FFFFFF;fontStyle=1;fontSize=19;fillColor=#B266FF;" parent="1" vertex="1">
          <mxGeometry x="1690" y="1010" width="159" height="60" as="geometry" />
        </mxCell>
        <mxCell id="66mkIdsG3FyTPQOkocWG-34" value="" style="edgeStyle=elbowEdgeStyle;elbow=vertical;rounded=0;fontColor=#000000;endArrow=none;endFill=0;strokeWidth=8;strokeColor=#23445D;entryX=0.5;entryY=0;entryDx=0;entryDy=0;exitX=0.5;exitY=1;exitDx=0;exitDy=0;" parent="1" source="66mkIdsG3FyTPQOkocWG-18" target="66mkIdsG3FyTPQOkocWG-23" edge="1">
          <mxGeometry width="100" height="100" relative="1" as="geometry">
            <mxPoint x="640" y="580" as="sourcePoint" />
            <mxPoint x="170" y="790" as="targetPoint" />
            <Array as="points">
              <mxPoint x="840" y="690" />
            </Array>
          </mxGeometry>
        </mxCell>
        <mxCell id="66mkIdsG3FyTPQOkocWG-35" value="Marketing" style="whiteSpace=wrap;rounded=1;fillColor=#999999;strokeColor=none;shadow=1;fontColor=#FFFFFF;fontStyle=0;fontSize=19;" parent="1" vertex="1">
          <mxGeometry x="370.00000000000034" y="1240" width="120" height="60" as="geometry" />
        </mxCell>
        <mxCell id="66mkIdsG3FyTPQOkocWG-36" style="edgeStyle=orthogonalEdgeStyle;rounded=0;orthogonalLoop=1;jettySize=auto;html=1;entryX=0.25;entryY=0;entryDx=0;entryDy=0;fontSize=19;endArrow=none;endFill=0;exitX=0.75;exitY=1;exitDx=0;exitDy=0;dashed=1;" parent="1" source="66mkIdsG3FyTPQOkocWG-11" target="66mkIdsG3FyTPQOkocWG-23" edge="1">
          <mxGeometry relative="1" as="geometry">
            <Array as="points">
              <mxPoint x="715" y="650" />
              <mxPoint x="320" y="650" />
            </Array>
          </mxGeometry>
        </mxCell>
        <mxCell id="66mkIdsG3FyTPQOkocWG-37" value="" style="edgeStyle=elbowEdgeStyle;elbow=horizontal;rounded=0;fontColor=#000000;endArrow=none;endFill=0;strokeWidth=8;entryX=1;entryY=0.5;entryDx=0;entryDy=0;strokeColor=#007FFF;" parent="1" target="66mkIdsG3FyTPQOkocWG-31" edge="1">
          <mxGeometry width="100" height="100" relative="1" as="geometry">
            <mxPoint x="630" y="620" as="sourcePoint" />
            <mxPoint x="1100" y="966" as="targetPoint" />
            <Array as="points">
              <mxPoint x="1890" y="830" />
              <mxPoint x="1660" y="730" />
              <mxPoint x="1890" y="810" />
              <mxPoint x="1190" y="856" />
            </Array>
          </mxGeometry>
        </mxCell>
        <mxCell id="66mkIdsG3FyTPQOkocWG-38" value="" style="edgeStyle=elbowEdgeStyle;elbow=horizontal;rounded=0;fontColor=#000000;endArrow=none;endFill=0;strokeWidth=8;entryX=1;entryY=0.5;entryDx=0;entryDy=0;strokeColor=#007FFF;" parent="1" target="66mkIdsG3FyTPQOkocWG-33" edge="1">
          <mxGeometry width="100" height="100" relative="1" as="geometry">
            <mxPoint x="630" y="620" as="sourcePoint" />
            <mxPoint x="1859.0000000000005" y="960" as="targetPoint" />
            <Array as="points">
              <mxPoint x="1890" y="840" />
              <mxPoint x="1670" y="740" />
              <mxPoint x="1900" y="820" />
              <mxPoint x="1200" y="866" />
            </Array>
          </mxGeometry>
        </mxCell>
        <mxCell id="66mkIdsG3FyTPQOkocWG-39" value="" style="edgeStyle=elbowEdgeStyle;elbow=horizontal;rounded=0;fontColor=#000000;endArrow=none;endFill=0;strokeWidth=8;entryX=1;entryY=0.5;entryDx=0;entryDy=0;strokeColor=#007FFF;" parent="1" target="66mkIdsG3FyTPQOkocWG-32" edge="1">
          <mxGeometry width="100" height="100" relative="1" as="geometry">
            <mxPoint x="630" y="620" as="sourcePoint" />
            <mxPoint x="1859.0000000000005" y="1050" as="targetPoint" />
            <Array as="points">
              <mxPoint x="1890" y="880" />
              <mxPoint x="1680" y="750" />
              <mxPoint x="1910" y="830" />
              <mxPoint x="1210" y="876" />
            </Array>
          </mxGeometry>
        </mxCell>
        <mxCell id="66mkIdsG3FyTPQOkocWG-40" value="Teamlead" style="whiteSpace=wrap;rounded=1;fillColor=#12AAB5;strokeColor=none;shadow=1;fontColor=#FFFFFF;fontSize=19;" parent="1" vertex="1">
          <mxGeometry x="540" y="780.0000000000001" width="120" height="60" as="geometry" />
        </mxCell>
        <mxCell id="66mkIdsG3FyTPQOkocWG-41" value="PO" style="whiteSpace=wrap;rounded=1;fillColor=#12AAB5;strokeColor=none;shadow=1;fontColor=#FFFFFF;fontSize=19;" parent="1" vertex="1">
          <mxGeometry x="720" y="780.0000000000001" width="120" height="60" as="geometry" />
        </mxCell>
        <mxCell id="66mkIdsG3FyTPQOkocWG-42" value="" style="edgeStyle=elbowEdgeStyle;elbow=horizontal;rounded=0;fontColor=#000000;endArrow=none;endFill=0;strokeWidth=8;strokeColor=#23445D;exitX=1;exitY=0.5;exitDx=0;exitDy=0;entryX=1;entryY=0.5;entryDx=0;entryDy=0;" parent="1" source="66mkIdsG3FyTPQOkocWG-40" target="66mkIdsG3FyTPQOkocWG-3" edge="1">
          <mxGeometry width="100" height="100" relative="1" as="geometry">
            <mxPoint x="470" y="1040" as="sourcePoint" />
            <mxPoint x="570" y="940" as="targetPoint" />
            <Array as="points">
              <mxPoint x="690" y="930" />
              <mxPoint x="750" y="890" />
            </Array>
          </mxGeometry>
        </mxCell>
        <mxCell id="66mkIdsG3FyTPQOkocWG-43" style="edgeStyle=orthogonalEdgeStyle;rounded=0;orthogonalLoop=1;jettySize=auto;html=1;dashed=1;endArrow=none;endFill=0;fontSize=19;entryX=0.25;entryY=1;entryDx=0;entryDy=0;exitX=0.25;exitY=0;exitDx=0;exitDy=0;" parent="1" source="66mkIdsG3FyTPQOkocWG-18" target="66mkIdsG3FyTPQOkocWG-15" edge="1">
          <mxGeometry relative="1" as="geometry">
            <mxPoint x="1235" y="580" as="sourcePoint" />
            <mxPoint x="1424" y="380" as="targetPoint" />
            <Array as="points">
              <mxPoint x="1225" y="390" />
              <mxPoint x="1250" y="390" />
              <mxPoint x="1250" y="240" />
            </Array>
          </mxGeometry>
        </mxCell>
        <mxCell id="66mkIdsG3FyTPQOkocWG-44" value="Процессный менеджер" style="whiteSpace=wrap;rounded=1;shadow=1;fillColor=#10739E;strokeColor=none;fontColor=#FFFFFF;fontStyle=1;fontSize=24" parent="1" vertex="1">
          <mxGeometry x="1810" y="330" width="340" height="60" as="geometry" />
        </mxCell>
        <mxCell id="66mkIdsG3FyTPQOkocWG-45" value="" style="edgeStyle=elbowEdgeStyle;elbow=horizontal;rounded=0;fontColor=#000000;endArrow=none;endFill=0;strokeWidth=8;entryX=1;entryY=0.75;entryDx=0;entryDy=0;strokeColor=#994C00;exitX=0.5;exitY=1;exitDx=0;exitDy=0;" parent="1" source="66mkIdsG3FyTPQOkocWG-44" target="66mkIdsG3FyTPQOkocWG-31" edge="1">
          <mxGeometry width="100" height="100" relative="1" as="geometry">
            <mxPoint x="950" y="470" as="sourcePoint" />
            <mxPoint x="2169.0000000000005" y="980" as="targetPoint" />
            <Array as="points">
              <mxPoint x="1980" y="530" />
              <mxPoint x="2070" y="680" />
              <mxPoint x="2000" y="600" />
              <mxPoint x="2230" y="680" />
              <mxPoint x="1530" y="726" />
            </Array>
          </mxGeometry>
        </mxCell>
        <mxCell id="66mkIdsG3FyTPQOkocWG-46" value="" style="edgeStyle=elbowEdgeStyle;elbow=horizontal;rounded=0;fontColor=#000000;endArrow=none;endFill=0;strokeWidth=8;entryX=1;entryY=0.75;entryDx=0;entryDy=0;strokeColor=#994C00;exitX=0.5;exitY=1;exitDx=0;exitDy=0;" parent="1" source="66mkIdsG3FyTPQOkocWG-44" target="66mkIdsG3FyTPQOkocWG-33" edge="1">
          <mxGeometry width="100" height="100" relative="1" as="geometry">
            <mxPoint x="1990" y="450.0000000000002" as="sourcePoint" />
            <mxPoint x="1859.0000000000005" y="975" as="targetPoint" />
            <Array as="points">
              <mxPoint x="1980" y="530" />
              <mxPoint x="2020" y="640" />
              <mxPoint x="1990" y="540" />
              <mxPoint x="2080" y="690" />
              <mxPoint x="2010" y="610" />
              <mxPoint x="2240" y="690" />
              <mxPoint x="1540" y="736" />
            </Array>
          </mxGeometry>
        </mxCell>
        <mxCell id="66mkIdsG3FyTPQOkocWG-47" value="" style="edgeStyle=elbowEdgeStyle;elbow=horizontal;rounded=0;fontColor=#000000;endArrow=none;endFill=0;strokeWidth=8;entryX=1;entryY=0.75;entryDx=0;entryDy=0;strokeColor=#994C00;exitX=0.5;exitY=1;exitDx=0;exitDy=0;" parent="1" source="66mkIdsG3FyTPQOkocWG-44" target="66mkIdsG3FyTPQOkocWG-32" edge="1">
          <mxGeometry width="100" height="100" relative="1" as="geometry">
            <mxPoint x="2000" y="460.0000000000002" as="sourcePoint" />
            <mxPoint x="1869.0000000000005" y="985" as="targetPoint" />
            <Array as="points">
              <mxPoint x="1980" y="480" />
              <mxPoint x="2000" y="550" />
              <mxPoint x="2090" y="700" />
              <mxPoint x="2020" y="620" />
              <mxPoint x="2250" y="700" />
              <mxPoint x="1550" y="746" />
            </Array>
          </mxGeometry>
        </mxCell>
        <mxCell id="66mkIdsG3FyTPQOkocWG-48" value="" style="edgeStyle=elbowEdgeStyle;elbow=horizontal;rounded=0;fontColor=#000000;endArrow=none;endFill=0;strokeWidth=8;entryX=1;entryY=0.5;entryDx=0;entryDy=0;strokeColor=#994C00;" parent="1" target="66mkIdsG3FyTPQOkocWG-11" edge="1">
          <mxGeometry width="100" height="100" relative="1" as="geometry">
            <mxPoint x="1980" y="440" as="sourcePoint" />
            <mxPoint x="1879.0000000000005" y="995" as="targetPoint" />
            <Array as="points">
              <mxPoint x="1030" y="470" />
              <mxPoint x="1760" y="440" />
              <mxPoint x="1730" y="440" />
              <mxPoint x="720" y="480" />
              <mxPoint x="715" y="490" />
              <mxPoint x="2170" y="510" />
              <mxPoint x="860" y="460" />
              <mxPoint x="940" y="490" />
              <mxPoint x="1980" y="470" />
              <mxPoint x="2100" y="710" />
              <mxPoint x="2030" y="630" />
              <mxPoint x="2260" y="710" />
              <mxPoint x="1560" y="756" />
            </Array>
          </mxGeometry>
        </mxCell>
        <mxCell id="66mkIdsG3FyTPQOkocWG-49" value="" style="edgeStyle=elbowEdgeStyle;elbow=vertical;rounded=0;fontColor=#000000;endArrow=none;endFill=0;strokeWidth=8;strokeColor=#23445D;entryX=0.5;entryY=0;entryDx=0;entryDy=0;exitX=0.5;exitY=1;exitDx=0;exitDy=0;" parent="1" source="66mkIdsG3FyTPQOkocWG-15" target="66mkIdsG3FyTPQOkocWG-44" edge="1">
          <mxGeometry width="100" height="100" relative="1" as="geometry">
            <mxPoint x="1349" y="250" as="sourcePoint" />
            <mxPoint x="640" y="520" as="targetPoint" />
            <Array as="points">
              <mxPoint x="1630" y="280" />
            </Array>
          </mxGeometry>
        </mxCell>
        <mxCell id="66mkIdsG3FyTPQOkocWG-50" value="Teamlead" style="whiteSpace=wrap;rounded=1;fillColor=#12AAB5;strokeColor=none;shadow=1;fontColor=#FFFFFF;fontSize=19;" parent="1" vertex="1">
          <mxGeometry x="540" y="780.0000000000001" width="120" height="60" as="geometry" />
        </mxCell>
        <mxCell id="66mkIdsG3FyTPQOkocWG-51" value="PO" style="whiteSpace=wrap;rounded=1;fillColor=#12AAB5;strokeColor=none;shadow=1;fontColor=#FFFFFF;fontSize=19;" parent="1" vertex="1">
          <mxGeometry x="720" y="780.0000000000001" width="120" height="60" as="geometry" />
        </mxCell>
        <mxCell id="66mkIdsG3FyTPQOkocWG-52" value="ДПК" style="whiteSpace=wrap;rounded=1;fillColor=#999999;strokeColor=none;shadow=1;fontColor=#FFFFFF;fontStyle=0;fontSize=19;" parent="1" vertex="1">
          <mxGeometry x="525.0000000000003" y="1240" width="120" height="60" as="geometry" />
        </mxCell>
        <mxCell id="66mkIdsG3FyTPQOkocWG-53" value="" style="whiteSpace=wrap;rounded=1;shadow=1;fontStyle=1;fontSize=20;arcSize=17;spacing=-60;labelPosition=left;verticalLabelPosition=top;align=right;verticalAlign=bottom;fillColor=#cce5ff;strokeColor=#36393d;opacity=30;glass=0;sketch=0;strokeWidth=2;" parent="1" vertex="1">
          <mxGeometry x="70" y="910.25" width="1810" height="79.5" as="geometry" />
        </mxCell>
        <mxCell id="66mkIdsG3FyTPQOkocWG-54" value="" style="whiteSpace=wrap;rounded=1;shadow=1;fontStyle=1;fontSize=20;arcSize=17;spacing=-60;labelPosition=left;verticalLabelPosition=top;align=right;verticalAlign=bottom;fillColor=#cce5ff;strokeColor=#36393d;opacity=30;strokeWidth=2;" parent="1" vertex="1">
          <mxGeometry x="70" y="999.75" width="1810" height="79.5" as="geometry" />
        </mxCell>
        <mxCell id="66mkIdsG3FyTPQOkocWG-55" value="" style="whiteSpace=wrap;rounded=1;shadow=1;fontStyle=1;fontSize=20;arcSize=17;spacing=-60;labelPosition=left;verticalLabelPosition=top;align=right;verticalAlign=bottom;fillColor=#cce5ff;strokeColor=#36393d;opacity=30;strokeWidth=2;" parent="1" vertex="1">
          <mxGeometry x="70" y="1090.25" width="1810" height="79.5" as="geometry" />
        </mxCell>
        <mxCell id="66mkIdsG3FyTPQOkocWG-56" value="" style="edgeStyle=elbowEdgeStyle;elbow=vertical;rounded=0;fontColor=#000000;endArrow=none;endFill=0;strokeWidth=8;strokeColor=#23445D;entryX=0.5;entryY=0;entryDx=0;entryDy=0;exitX=0.5;exitY=1;exitDx=0;exitDy=0;" parent="1" source="66mkIdsG3FyTPQOkocWG-18" target="66mkIdsG3FyTPQOkocWG-51" edge="1">
          <mxGeometry width="100" height="100" relative="1" as="geometry">
            <mxPoint x="1320" y="580.0000000000002" as="sourcePoint" />
            <mxPoint x="360" y="790" as="targetPoint" />
            <Array as="points">
              <mxPoint x="1060" y="690" />
            </Array>
          </mxGeometry>
        </mxCell>
        <mxCell id="66mkIdsG3FyTPQOkocWG-57" style="edgeStyle=orthogonalEdgeStyle;rounded=0;orthogonalLoop=1;jettySize=auto;html=1;entryX=0.25;entryY=0;entryDx=0;entryDy=0;fontSize=19;endArrow=none;endFill=0;exitX=0.75;exitY=1;exitDx=0;exitDy=0;dashed=1;" parent="1" source="66mkIdsG3FyTPQOkocWG-11" target="66mkIdsG3FyTPQOkocWG-51" edge="1">
          <mxGeometry relative="1" as="geometry">
            <Array as="points">
              <mxPoint x="715" y="730" />
              <mxPoint x="750" y="730" />
            </Array>
            <mxPoint x="725" y="580.0000000000002" as="sourcePoint" />
            <mxPoint x="330" y="790" as="targetPoint" />
          </mxGeometry>
        </mxCell>
        <mxCell id="66mkIdsG3FyTPQOkocWG-58" value="" style="edgeStyle=elbowEdgeStyle;elbow=vertical;rounded=0;fontColor=#000000;endArrow=none;endFill=0;strokeWidth=8;entryX=0.5;entryY=0;entryDx=0;entryDy=0;strokeColor=#007FFF;exitX=0.5;exitY=1;exitDx=0;exitDy=0;" parent="1" source="66mkIdsG3FyTPQOkocWG-11" target="66mkIdsG3FyTPQOkocWG-50" edge="1">
          <mxGeometry width="100" height="100" relative="1" as="geometry">
            <mxPoint x="640" y="580.0000000000002" as="sourcePoint" />
            <mxPoint x="180" y="790" as="targetPoint" />
            <Array as="points">
              <mxPoint x="600" y="670" />
            </Array>
          </mxGeometry>
        </mxCell>
        <mxCell id="0eLCowopPErswoTnAXUG-1" value="TEST2" style="text;html=1;strokeColor=none;fillColor=none;align=center;verticalAlign=middle;whiteSpace=wrap;rounded=0;fontSize=52;" parent="1" vertex="1">
          <mxGeometry x="220" y="300" width="40" height="20" as="geometry" />
        </mxCell>
      </root>
    </mxGraphModel>
  </diagram>
</mxfile>
